<svg xmlns="http://www.w3.org/2000/svg" viewBox="0 0 709.37 162.28"><defs><style>.cls-1{fill:#122443;}.cls-2{fill:#ffce00;}</style></defs><title>Fichier 3</title><g id="Calque_2" data-name="Calque 2"><g id="Calque_1-2" data-name="Calque 1"><path class="cls-1" d="M191.47,2.24h19.44V72.51h36V90.45H191.47Z"/><path class="cls-1" d="M258.37,2.24H318.3V20.18H277.81V36.63h38.25V54.57H277.81V72.51h42.73V90.45H258.37Z"/><path class="cls-1" d="M393.79,25.17a18.94,18.94,0,0,0-7-5.36,23.42,23.42,0,0,0-9.66-1.87,24.17,24.17,0,0,0-18.25,8,27.47,27.47,0,0,0-5.36,9,32.44,32.44,0,0,0-1.93,11.33,32.24,32.24,0,0,0,1.93,11.4,28.18,28.18,0,0,0,5.3,9,23.77,23.77,0,0,0,7.91,5.92,22.9,22.9,0,0,0,9.78,2.12,22,22,0,0,0,10.59-2.49,21.16,21.16,0,0,0,7.6-7l16.19,12.09A33.67,33.67,0,0,1,396.66,89,44,44,0,0,1,379,92.69a54.28,54.28,0,0,1-19.06-3.24,43.62,43.62,0,0,1-15.08-9.28,42.22,42.22,0,0,1-9.9-14.64,49.74,49.74,0,0,1-3.55-19.19,49.76,49.76,0,0,1,3.55-19.18,42.22,42.22,0,0,1,9.9-14.64,43.62,43.62,0,0,1,15.08-9.28A54.28,54.28,0,0,1,379,0a47.45,47.45,0,0,1,7.79.68,42.33,42.33,0,0,1,8,2.19,35.21,35.21,0,0,1,7.54,4A30.1,30.1,0,0,1,408.74,13Z"/><path class="cls-1" d="M416.72,46.34a49.76,49.76,0,0,1,3.55-19.18,42.22,42.22,0,0,1,9.9-14.64,43.62,43.62,0,0,1,15.08-9.28,57.68,57.68,0,0,1,38.12,0,43.71,43.71,0,0,1,15.08,9.28,42.22,42.22,0,0,1,9.9,14.64,49.76,49.76,0,0,1,3.55,19.18,49.74,49.74,0,0,1-3.55,19.19,42.22,42.22,0,0,1-9.9,14.64,43.71,43.71,0,0,1-15.08,9.28,57.68,57.68,0,0,1-38.12,0,43.62,43.62,0,0,1-15.08-9.28,42.22,42.22,0,0,1-9.9-14.64A49.74,49.74,0,0,1,416.72,46.34Zm20.18,0a32.24,32.24,0,0,0,1.93,11.4,26.08,26.08,0,0,0,5.55,9A25.11,25.11,0,0,0,453,72.63a31,31,0,0,0,22.55,0,25.15,25.15,0,0,0,8.66-5.92,26.08,26.08,0,0,0,5.55-9,32.47,32.47,0,0,0,1.93-11.4A32.67,32.67,0,0,0,489.79,35a26,26,0,0,0-5.55-9,25.15,25.15,0,0,0-8.66-5.92,31,31,0,0,0-22.55,0A25.11,25.11,0,0,0,444.38,26a26,26,0,0,0-5.55,9A32.44,32.44,0,0,0,436.9,46.34Z"/><path class="cls-1" d="M582.79,25.17a19,19,0,0,0-7-5.36,23.38,23.38,0,0,0-9.66-1.87,24.17,24.17,0,0,0-18.25,8,27.47,27.47,0,0,0-5.36,9,32.44,32.44,0,0,0-1.93,11.33,32.24,32.24,0,0,0,1.93,11.4,28.37,28.37,0,0,0,5.3,9,23.87,23.87,0,0,0,7.91,5.92,22.9,22.9,0,0,0,9.78,2.12,21.91,21.91,0,0,0,10.59-2.49,21.07,21.07,0,0,0,7.6-7l16.19,12.09A33.67,33.67,0,0,1,585.65,89,44,44,0,0,1,568,92.69a54.32,54.32,0,0,1-19.06-3.24,43.71,43.71,0,0,1-15.08-9.28,42.22,42.22,0,0,1-9.9-14.64,49.74,49.74,0,0,1-3.55-19.19,49.76,49.76,0,0,1,3.55-19.18,42.22,42.22,0,0,1,9.9-14.64A43.71,43.71,0,0,1,548.9,3.24,54.32,54.32,0,0,1,568,0a47.45,47.45,0,0,1,7.79.68,42.12,42.12,0,0,1,8,2.19,35.21,35.21,0,0,1,7.54,4A30.14,30.14,0,0,1,597.74,13Z"/><path class="cls-1" d="M707,90.45H653.55a58,58,0,0,1-19.12-3,42.87,42.87,0,0,1-15.14-8.91,41.48,41.48,0,0,1-10-14.2,47.59,47.59,0,0,1-3.61-19.07,45,45,0,0,1,3.67-18.31,43.68,43.68,0,0,1,10-14.33,45.33,45.33,0,0,1,15-9.28A51,51,0,0,1,652.8,0a50.21,50.21,0,0,1,18.44,3.36,46.06,46.06,0,0,1,15,9.35,43.55,43.55,0,0,1,10,14.26,44.54,44.54,0,0,1,3.67,18.25,40.29,40.29,0,0,1-1,9.22,35.36,35.36,0,0,1-3.18,8.47,27.56,27.56,0,0,1-13.33,12.34v.25H707ZM625.89,45.22A27.26,27.26,0,0,0,633.8,64.6a27.45,27.45,0,0,0,8.54,5.79,26.89,26.89,0,0,0,20.93,0,27.41,27.41,0,0,0,8.53-5.79,27.26,27.26,0,0,0,7.91-19.38,27.26,27.26,0,0,0-7.91-19.37,27.41,27.41,0,0,0-8.53-5.79,26.89,26.89,0,0,0-20.93,0,27.45,27.45,0,0,0-8.54,5.79,27.26,27.26,0,0,0-7.91,19.37Z"/><path class="cls-2" d="M239.1,151.07a25.38,25.38,0,0,1-9.95,8.35A29.72,29.72,0,0,1,216.92,162a33,33,0,0,1-12.52-2.32,28.14,28.14,0,0,1-9.74-6.5,29.71,29.71,0,0,1-6.33-9.95,36,36,0,0,1,0-25.17,29.9,29.9,0,0,1,6.33-9.9,28.66,28.66,0,0,1,9.74-6.54,32.43,32.43,0,0,1,12.52-2.36,29.77,29.77,0,0,1,11.34,2.15,22.51,22.51,0,0,1,9.23,7.21l-4.55,3.79a16.46,16.46,0,0,0-7.12-6.15,21.71,21.71,0,0,0-8.9-1.94,26.18,26.18,0,0,0-10.5,2,23.41,23.41,0,0,0-8,5.57,24.6,24.6,0,0,0-5.06,8.35,31.26,31.26,0,0,0,0,20.74,24.7,24.7,0,0,0,5.06,8.35,23.39,23.39,0,0,0,8,5.56,26.19,26.19,0,0,0,10.5,2,21.27,21.27,0,0,0,4.72-.55,21.72,21.72,0,0,0,4.77-1.69,23,23,0,0,0,4.42-2.86,18.49,18.49,0,0,0,3.71-4.18Z"/><path class="cls-2" d="M245.42,130.58A33.74,33.74,0,0,1,247.7,118a29.71,29.71,0,0,1,6.32-9.9,28.75,28.75,0,0,1,9.74-6.54,34.39,34.39,0,0,1,25,0,28.56,28.56,0,0,1,9.74,6.54,29.9,29.9,0,0,1,6.33,9.9,36,36,0,0,1,0,25.17,29.71,29.71,0,0,1-6.33,9.95,28,28,0,0,1-9.74,6.5,34.94,34.94,0,0,1-25,0,28.23,28.23,0,0,1-9.74-6.5,29.54,29.54,0,0,1-6.32-9.95A34,34,0,0,1,245.42,130.58Zm5.57,0A29.76,29.76,0,0,0,252.76,141a24.54,24.54,0,0,0,5.06,8.35,23.35,23.35,0,0,0,8,5.56,28.17,28.17,0,0,0,21,0,23.39,23.39,0,0,0,8-5.56,24.7,24.7,0,0,0,5.06-8.35,31.26,31.26,0,0,0,0-20.74,24.6,24.6,0,0,0-5.06-8.35,23.41,23.41,0,0,0-8-5.57,28.3,28.3,0,0,0-21,0,23.37,23.37,0,0,0-8,5.57,24.44,24.44,0,0,0-5.06,8.35A29.76,29.76,0,0,0,251,130.58Z"/><path class="cls-2" d="M319.62,100.73h7.17L363.14,153h.16V100.73h5.57v59.7H361.7l-36.34-52.28h-.17v52.28h-5.57Z"/><path class="cls-2" d="M386.83,149.38a14.24,14.24,0,0,0,5.69,5.65,16.71,16.71,0,0,0,8,1.86,15.72,15.72,0,0,0,5.23-.85,13.15,13.15,0,0,0,4.26-2.36,11,11,0,0,0,2.86-3.67,10.72,10.72,0,0,0,1.06-4.84,9.35,9.35,0,0,0-1.31-5.15,10.45,10.45,0,0,0-3.5-3.33,25.71,25.71,0,0,0-4.93-2.23q-2.75-.93-5.65-1.86t-5.65-2.11a18.76,18.76,0,0,1-4.93-3.07,13.69,13.69,0,0,1-3.5-4.77,16.89,16.89,0,0,1-1.31-7.08,15.36,15.36,0,0,1,1.56-7,15.12,15.12,0,0,1,4.22-5.15,19,19,0,0,1,6.11-3.12,24.78,24.78,0,0,1,7.25-1.05,23.56,23.56,0,0,1,9.07,1.73,17.31,17.31,0,0,1,7.21,5.77l-4.81,3.46a13.28,13.28,0,0,0-11.64-5.9A18.09,18.09,0,0,0,397,105a12.86,12.86,0,0,0-4.26,2.1,10.44,10.44,0,0,0-2.91,3.5,10.69,10.69,0,0,0-1.09,5c0,3,.75,5.27,2.27,6.87a16.2,16.2,0,0,0,5.69,3.8,61.48,61.48,0,0,0,7.42,2.44,36,36,0,0,1,7.43,2.83,16,16,0,0,1,5.69,4.93q2.26,3.17,2.27,8.73a16.2,16.2,0,0,1-1.51,7.16,15.9,15.9,0,0,1-4.09,5.27,17.63,17.63,0,0,1-5.95,3.25,22.53,22.53,0,0,1-7,1.1A28.08,28.08,0,0,1,390,159.88a19.88,19.88,0,0,1-8.51-7Z"/><path class="cls-2" d="M474.53,137.58a37.8,37.8,0,0,1-1.1,9.19,21,21,0,0,1-3.67,7.76,18.35,18.35,0,0,1-6.74,5.39,26.87,26.87,0,0,1-20.49,0,18.31,18.31,0,0,1-6.75-5.39,21.17,21.17,0,0,1-3.67-7.76,37.8,37.8,0,0,1-1.09-9.19V100.73h5.56v35.41a42.9,42.9,0,0,0,.59,6.83,20.63,20.63,0,0,0,2.32,6.75,14.22,14.22,0,0,0,4.89,5.14,18.35,18.35,0,0,0,16.78,0,14.22,14.22,0,0,0,4.89-5.14,20.4,20.4,0,0,0,2.32-6.75,42.9,42.9,0,0,0,.59-6.83V100.73h5.57Z"/><path class="cls-2" d="M489.79,100.73h5.56v54.64h27.83v5.06H489.79Z"/><path class="cls-2" d="M537.43,105.79H517v-5.06H563.4v5.06H543v54.64h-5.57Z"/><path class="cls-2" d="M572.59,100.73h5.57v59.7h-5.57Z"/><path class="cls-2" d="M594.52,100.73h7.17L638,153h.17V100.73h5.56v59.7H636.6l-36.35-52.28h-.17v52.28h-5.56Z"/><path class="cls-2" d="M709.37,156.55a38.57,38.57,0,0,1-10.84,4.17A53.19,53.19,0,0,1,687.11,162a33,33,0,0,1-12.53-2.32,28.23,28.23,0,0,1-9.74-6.5,29.85,29.85,0,0,1-6.32-9.95,35.87,35.87,0,0,1,0-25.17,30,30,0,0,1,6.32-9.9,28.75,28.75,0,0,1,9.74-6.54,32.48,32.48,0,0,1,12.53-2.36q13.32,0,21.5,8.26l-4.05,4.22a17.07,17.07,0,0,0-3.33-3,22.93,22.93,0,0,0-4.3-2.37,27.89,27.89,0,0,0-4.85-1.51,23.14,23.14,0,0,0-5-.55,26.18,26.18,0,0,0-10.5,2,23.41,23.41,0,0,0-8,5.57,24.6,24.6,0,0,0-5.06,8.35,31.26,31.26,0,0,0,0,20.74,24.7,24.7,0,0,0,5.06,8.35,23.39,23.39,0,0,0,8,5.56,26.19,26.19,0,0,0,10.5,2,51.5,51.5,0,0,0,9-.76,23.2,23.2,0,0,0,7.67-2.78V133.28H689.47v-5.06h19.9Z"/><path class="cls-2" d="M48.74,97A11.15,11.15,0,0,0,54.2,76.1,25.14,25.14,0,1,1,39,91.26,11.11,11.11,0,0,0,48.74,97Z"/><path class="cls-1" d="M62.6,55.61A44.07,44.07,0,1,1,18.54,99.67,44.07,44.07,0,0,1,62.6,55.61ZM.09,96.28Q0,98,0,99.67a62.61,62.61,0,0,0,62.6,62.61H165.21l-35.82-56.06a28.55,28.55,0,0,1-4.47-12.64A62.62,62.62,0,0,0,67.64,37.29C64.55,30.06,56.65,13.55,45,3.12c0,0-4.82,28.12-18.48,40.17-8,7-15.35,17.87-20.31,29.19A62,62,0,0,0,1,88.52a51.18,51.18,0,0,0-1,7.8Z"/></g></g></svg>