<svg viewBox="0 0 167 162.28" xmlns="http://www.w3.org/2000/svg"><path d="m48.74 97a11.15 11.15 0 0 0 5.46-20.9 25.14 25.14 0 1 1 -15.2 15.16 11.11 11.11 0 0 0 9.74 5.74z" fill="#ffce00"/><path d="m62.6 55.61a44.07 44.07 0 1 1 -44.06 44.06 44.07 44.07 0 0 1 44.06-44.06zm-62.51 40.67q-.09 1.72-.09 3.39a62.61 62.61 0 0 0 62.6 62.61h102.61l-35.82-56.06a28.55 28.55 0 0 1 -4.47-12.64 62.62 62.62 0 0 0 -57.28-56.29c-3.09-7.23-10.99-23.74-22.64-34.17 0 0-4.82 28.12-18.48 40.17-8 7-15.35 17.87-20.31 29.19a62 62 0 0 0 -5.21 16.04 51.18 51.18 0 0 0 -1 7.8z" fill="#122443"/></svg>