<?xml version="1.0" encoding="UTF-8"?>
<svg version="1.1" viewBox="0 0 700 700" xmlns="http://www.w3.org/2000/svg">
 <path d="m350 513.33c-61.883 0-121.23-24.582-164.99-68.34-43.758-43.758-68.34-103.11-68.34-164.99s24.582-121.23 68.34-164.99c43.758-43.758 103.11-68.34 164.99-68.34s121.23 24.582 164.99 68.34c43.758 43.758 68.34 103.11 68.34 164.99 0 40.957-10.781 81.195-31.258 116.67-20.48 35.469-49.938 64.926-85.406 85.406-35.473 20.477-75.711 31.258-116.67 31.258zm0-420c-49.508 0-96.988 19.668-131.99 54.676-35.008 35.004-54.676 82.484-54.676 131.99s19.668 96.988 54.676 131.99c35.004 35.008 82.484 54.676 131.99 54.676s96.988-19.668 131.99-54.676c35.008-35.004 54.676-82.484 54.676-131.99 0-32.766-8.625-64.957-25.012-93.332-16.383-28.379-39.945-51.941-68.324-68.324-28.375-16.387-60.566-25.012-93.332-25.012zm23.332 70c0-8.3359-4.4453-16.039-11.664-20.207s-16.117-4.168-23.336 0-11.664 11.871-11.664 20.207c0 8.3359 4.4453 16.039 11.664 20.207 7.2188 4.168 16.117 4.168 23.336 0 7.2188-4.168 11.664-11.871 11.664-20.207zm0 233.33v-163.33c0-8.3359-4.4453-16.039-11.664-20.207s-16.117-4.168-23.336 0-11.664 11.871-11.664 20.207v163.34c0 8.3359 4.4453 16.039 11.664 20.207s16.117 4.168 23.336 0 11.664-11.871 11.664-20.207z"/>
</svg>
